<svg xmlns="http://www.w3.org/2000/svg" viewBox="0 0 39 39"><path d="M1 1h7v7h-7zM9 1h2v1h1v1h-2v-1h-1zM14 1h4v1h-1v1h4v-1h-1v-1h2v1h1v-1h1v2h-1v1h2v1h-1v3h1v-3h1v6h-1v1h-1v1h-1v-1h-1v2h-1v-1h-2v-1h2v-3h-1v-1h1v-2h1v5h2v-1h1v-1h-2v-4h-1v-1h-2v4h-1v-1h-1v1h-1v-3h1v1h1v-1h-1v-1h-1v1h-1v-1h-1v-1h1v-1h-2zM25 1h3v1h-1v2h1v-1h1v2h-1v3h-1v-3h-1v-3h-1zM31 1h7v7h-7zM2 2v5h5v-5zM29 2h1v1h-1zM32 2v5h5v-5zM3 3h3v3h-3zM9 3h1v1h-1zM12 3h1v1h-1zM33 3h3v3h-3zM11 4h1v1h-1zM13 4h2v1h-1v1h-1v1h-1v1h1v-1h1v4h-1v-2h-1v1h-2v-1h1v-2h-1v1h-1v-2h1v-1h1v1h1v-1h1zM15 5h1v1h-1zM29 6h1v4h2v-1h1v2h-1v3h1v1h-1v1h-1v-1h-1v2h-1v-1h-1v-1h-1v1h-1v-1h-1v1h-1v-2h1v-1h1v1h2v-1h1v1h2v-1h-2v-1h-1v1h-1v-1h-1v-1h2v-1h-1v-1h2zM15 7h1v1h-1zM18 8h1v3h-1zM1 9h1v1h-1zM3 9h1v1h-1zM7 9h2v1h-2zM35 9h1v1h-1zM37 9h1v3h-1v-1h-1v-1h1zM4 10h2v1h-1v1h1v1h3v-1h-2v-1h3v1h2v-1h1v2h-1v1h-1v1h-2v-1h-2v1h2v1h-4v1h-1v-1h-1v-1h1v-2h-1v1h-2v-3h1v1h1v-1h1zM34 10h1v1h-1zM16 11h1v1h-1zM30 11v1h1v-1zM33 11h1v1h-1zM35 11h1v1h-1zM13 13h5v2h-1v2h2v-1h-1v-1h1v-1h2v3h1v1h-2v1h-1v-1h-1v3h-2v1h-1v-2h2v-2h-3v-1h-2v-1h-1v-1h2v1h2v1h1v-2h-1v-1h-1v1h-1zM34 13h1v2h1v1h-1v1h-2v2h1v1h-1v2h-1v1h-1v2h-1v2h-1v1h-1v1h-1v-1h-1v-2h1v1h1v-2h1v-1h1v-1h-1v1h-1v-2h1v-1h1v1h1v-1h-1v-1h1v-3h1v-1h2zM37 13h1v7h-1v-1h-1v1h-1v-1h-1v-1h3zM22 14h1v1h-1zM9 16h2v1h1v1h1v1h-2v-1h-2v1h1v1h-1v2h-2v-1h1v-1h-1v-1h1v-1h-1v1h-1v-2h3zM27 16h1v1h-1zM25 17h1v2h-1v1h-1v-2h1zM28 17h1v1h1v2h-2zM1 18h2v1h-2zM22 18h1v1h-1zM4 19h1v1h1v1h-1v3h1v-2h1v1h1v1h-1v1h2v2h-1v-1h-1v1h1v1h-2v-3h-1v3h1v1h5v3h-2v-2h-8v-1h2v-1h-2v-1h3v-2h-1v-1h-2v-4h3zM14 19h1v1h-1zM20 19h1v3h4v-2h1v6h-1v-1h-2v-1h1v-1h-2v1h-1v2h1v2h-1v1h-2v-1h1v-6h-1v-2h1zM26 19h1v1h-1zM10 20h2v1h-2zM34 20h1v2h-1zM2 21v2h1v-2zM12 21h1v2h-4v-1h3zM36 21h1v1h1v7h-1v-3h-1v-1h1v-2h-1zM14 22h1v1h1v-1h3v1h-2v1h-1v3h-1v-3h-2v-1h1zM34 23h2v1h-1v1h-3v-1h2zM17 24h2v4h-1v-3h-1zM1 25h1v1h-1zM11 25h1v1h-1zM13 25h1v3h-1v-1h-1v-1h1zM31 25h1v1h1v1h-1v2h3v1h-1v4h2v2h-1v-1h-1v1h1v1h-2v-1h-1v-1h1v-1h-3v1h-1v-1h-1v-1h-1v-1h-1v-2h2v2h1v-4h2zM10 26h1v1h-1zM24 26h1v2h-1v1h-1v-2h1zM9 27h1v1h-1zM11 27h1v1h1v1h-2zM16 27h1v1h-1zM35 27h1v1h-1zM15 28h1v1h2v1h-1v2h1v1h1v-1h-1v-1h1v-1h3v1h-1v1h-1v1h1v-1h1v3h-1v1h-1v-1h-1v-1h-1v1h1v1h-1v2h-1v-1h-1v1h-2v-2h1v-1h-1v-1h2v2h1v-3h-3v-1h2v-2h-1v1h-1v1h-1v1h-1v-2h1v-1h1v-1h1zM25 28h1v2h-1v2h-1v-1h-1v-1h1v-1h1zM36 29h1v1h1v2h-1v-1h-1zM30 30v3h3v-3zM1 31h7v7h-7zM22 31h1v1h-1zM31 31h1v1h-1zM2 32v5h5v-5zM25 32h1v6h-1v-2h-1v-3h1zM36 32h1v1h-1zM3 33h3v3h-3zM10 33h2v1h-1v1h-1zM13 33h1v1h-1zM37 33h1v1h-1zM9 35h1v1h-1zM12 35h1v1h-1zM30 35h1v1h-1zM37 35h1v1h-1zM10 36h1v1h-1zM21 36h1v2h-2v-1h1zM23 36h1v1h-1zM29 36h1v2h-2v-1h1zM9 37h1v1h-1zM12 37h1v1h-1zM32 37h1v1h-1zM37 37h1v1h-1z"/></svg>